<svg data-v-0dd9719b="" version="1.0" xmlns="http://www.w3.org/2000/svg" xmlns:xlink="http://www.w3.org/1999/xlink" width="100%" height="100%" viewBox="0 0 340.000000 250.000000" preserveAspectRatio="xMidYMid meet" color-interpolation-filters="sRGB" style="margin: auto;"> <rect data-v-0dd9719b="" x="0" y="0" width="100%" height="100%" fill="#ffffff" fill-opacity="1" class="background"></rect> <rect data-v-0dd9719b="" x="0" y="0" width="100%" height="100%" fill="url(#watermark)" fill-opacity="1" class="watermarklayer"></rect> <g data-v-0dd9719b="" fill="#fb663c" class="icon-text-wrapper icon-svg-group iconsvg" transform="translate(46.5,105.84817123413086)"><g class="iconsvg-imagesvg" transform="translate(0,0)"><g><rect fill="#fb663c" fill-opacity="0" stroke-width="2" x="0" y="0" width="60" height="38.30365863779422" class="image-rect"></rect> <svg filter="url(#colors6389231230)" x="0" y="0" width="60" height="38.30365863779422" filtersec="colorsf6855877693" class="image-svg-svg primary" style="overflow: visible;"><svg xmlns="http://www.w3.org/2000/svg" viewBox="0 0 93.6 61.2"><path d="M75.7 30.6c0 3.5-2.8 6.3-6.3 6.3-5 0-10.3-6.3-10.3-6.3m16.6 0c0-3.5-2.8-6.3-6.3-6.3-5 0-10.3 6.3-10.3 6.3m-24.6 0s-5.2-6.3-10.3-6.3c-3.5 0-6.3 2.8-6.3 6.3m0 0c0 3.5 2.8 6.3 6.3 6.3 5 0 10.3-6.3 10.3-6.3m24.6 0L30.6 2 2 30.6l28.6 28.6 28.5-28.6zm32.5 0L63 2 34.5 30.6 63 59.1l28.6-28.5z" fill="none" stroke="#333" stroke-width="4" stroke-linejoin="round" stroke-miterlimit="10"></path></svg></svg> <defs><filter id="colors6389231230"><feColorMatrix type="matrix" values="0 0 0 0 0.98046875  0 0 0 0 0.3984375  0 0 0 0 0.234375  0 0 0 1 0" class="icon-fecolormatrix"></feColorMatrix></filter> <filter id="colorsf6855877693"><feColorMatrix type="matrix" values="0 0 0 0 0.99609375  0 0 0 0 0.99609375  0 0 0 0 0.99609375  0 0 0 1 0" class="icon-fecolormatrix"></feColorMatrix></filter> <filter id="colorsb1545870506"><feColorMatrix type="matrix" values="0 0 0 0 0  0 0 0 0 0  0 0 0 0 0  0 0 0 1 0" class="icon-fecolormatrix"></feColorMatrix></filter></defs></g></g> <g transform="translate(67,4.5418291091918945)"><g data-gra="path-name" fill-rule="" class="tp-name iconsvg-namesvg"><g transform="scale(1)"><g><path d="M3.03-29.22L0 0 4.14 0 5.53-13.38 19.63-13.38 20.07-17.52 5.97-17.52 6.81-25.12 21.94-25.12 23.33-29.22 3.03-29.22ZM51.64 0L47.06 0 44.95-7.49 31.65-7.49 27.99 0 23.33 0 37.7-29.22 43.44-29.22 51.64 0ZM40.09-24.76L33.64-11.59 43.8-11.59 40.09-24.76ZM75.09-29.22L54.7-29.22 53.07-13.1 69.36-13.1 68.44-4.1 51.64-4.1 52.2 0 72.1 0 73.9-17.2 57.69-17.2 58.49-25.12 70.55-25.12 70.31-22.85 74.41-22.85 75.09-29.22ZM85.8-25.12L83.13 0 87.35 0 89.98-25.12 99.93-25.12 100.29-29.22 76.32-29.22 75.89-25.12 85.8-25.12ZM103.4-29.22L100.29 0 119.92 0 121.35-4.1 104.91-4.1 107.54-29.22 103.4-29.22ZM121.35 0L125.49 0 128.6-29.22 124.38-29.22 121.35 0ZM131.67-29.22L128.6 0 132.78 0 135.13-22.38 148.63 0 152.81 0 155.83-29.22 151.69-29.22 149.42-7.56 136.24-29.22 131.67-29.22ZM180-29.22L168.21-16.2 168.65-16.2 177.41 0 172.71 0 165.51-13.22 160.81-8.04 159.97 0 155.83 0 158.94-29.22 163.08-29.22 161.45-13.93 175.22-29.22 180-29.22Z" transform="translate(0, 29.219999313354492)"></path></g> <!----> <!----> <!----> <!----> <!----> <!----> <!----></g></g> <!----></g></g><defs v-gra="od"></defs></svg>